Coordinates
version=1
nRows=13
nColumns=38
inDegrees=no

Units are S.I. units (second, meters, Newtons, ...)
If the header above contains a line with 'inDegrees', this indicates whether rotational values are in degrees (yes) or radians (no).

endheader
time	pelvis_tilt	pelvis_list	pelvis_rotation	pelvis_tx	pelvis_ty	pelvis_tz	hip_flexion_r	hip_adduction_r	hip_rotation_r	knee_angle_r	ankle_angle_r	subtalar_angle_r	mtp_angle_r	hip_flexion_l	hip_adduction_l	hip_rotation_l	knee_angle_l	ankle_angle_l	subtalar_angle_l	mtp_angle_l	lumbar_extension	lumbar_bending	lumbar_rotation	arm_flex_r	arm_add_r	arm_rot_r	elbow_flex_r	pro_sup_r	wrist_flex_r	wrist_dev_r	arm_flex_l	arm_add_l	arm_rot_l	elbow_flex_l	pro_sup_l	wrist_flex_l	wrist_dev_l
25	0.229295	1.42151	1.35703	0.693259	0.614146	0.887018	0.553528	-0.0872171	-0.0458594	0.875861	-0.123655	0	0	0.430191	-0.24106	-0.321868	0.712967	-0.220012	0	0	-0.256301	0.111614	-0.0486667	0.246731	-0.446311	0.54346	0.505984	0.845565	0	0	0.0384293	-0.320278	0.0899044	0.800603	1.55204	0	0
25.01	0.225924	1.42361	1.36163	0.693167	0.616392	0.889867	0.537911	-0.0883142	-0.0505728	0.857191	-0.12681	0	0	0.413338	-0.23705	-0.327093	0.689065	-0.229012	0	0	-0.245911	0.109069	-0.0531696	0.239925	-0.446456	0.550153	0.50539	0.841235	0	0	0.0334203	-0.321122	0.0886824	0.799515	1.55136	0	0
25.02	0.223456	1.42563	1.3662	0.69304	0.618668	0.892587	0.522421	-0.0900611	-0.0562676	0.838054	-0.130645	0	0	0.396623	-0.232704	-0.331265	0.664529	-0.238213	0	0	-0.235299	0.106781	-0.0585639	0.233162	-0.44651	0.557092	0.504839	0.837315	0	0	0.0281269	-0.321986	0.0873301	0.79838	1.55041	0	0
25.03	0.2223	1.42806	1.36938	0.692923	0.620901	0.895249	0.506871	-0.0916666	-0.0624508	0.820486	-0.133918	0	0	0.379363	-0.228518	-0.335738	0.639579	-0.247744	0	0	-0.225534	0.104579	-0.0638699	0.226705	-0.446857	0.564977	0.504817	0.834002	0	0	0.0227873	-0.322938	0.0859514	0.797488	1.54917	0	0
25.04	0.221272	1.43048	1.372	0.692819	0.623029	0.897837	0.491681	-0.0925678	-0.0679694	0.803614	-0.137248	0	0	0.362183	-0.2246	-0.34067	0.614767	-0.257548	0	0	-0.216243	0.102332	-0.0688413	0.220477	-0.447337	0.572636	0.505227	0.829997	0	0	0.0175167	-0.323782	0.0844611	0.796749	1.54758	0	0
25.05	0.220613	1.43258	1.37497	0.692651	0.625151	0.900306	0.477257	-0.0935459	-0.0733232	0.785959	-0.142348	0	0	0.345809	-0.220594	-0.344542	0.590366	-0.2675	0	0	-0.206744	0.100287	-0.0744036	0.214036	-0.447635	0.57897	0.505661	0.825624	0	0	0.0122296	-0.324482	0.0828351	0.795873	1.54614	0	0
25.06	0.222776	1.43459	1.37722	0.692254	0.627442	0.902702	0.461643	-0.0957505	-0.0816736	0.766443	-0.147885	0	0	0.329861	-0.216131	-0.346233	0.56592	-0.277612	0	0	-0.196948	0.0990016	-0.0816709	0.207224	-0.448222	0.585233	0.506024	0.822058	0	0	0.00685072	-0.324839	0.0813751	0.794494	1.54491	0	0
25.07	0.225036	1.43774	1.37911	0.691854	0.629701	0.905124	0.444228	-0.0979103	-0.0903208	0.747004	-0.152028	0	0	0.312489	-0.21149	-0.348117	0.541241	-0.287859	0	0	-0.188769	0.0973623	-0.0886248	0.200637	-0.448868	0.591335	0.506823	0.818026	0	0	0.00163887	-0.32529	0.0799447	0.793342	1.54397	0	0
25.08	0.225885	1.44162	1.3812	0.691592	0.631851	0.907502	0.42679	-0.0991466	-0.0969644	0.728643	-0.155857	0	0	0.294104	-0.206741	-0.350644	0.51636	-0.297981	0	0	-0.181802	0.0951189	-0.0945059	0.194644	-0.449602	0.59793	0.507962	0.813961	0	0	-0.00346973	-0.325993	0.0785037	0.792512	1.54319	0	0
25.09	0.225054	1.44527	1.38455	0.691408	0.633956	0.909741	0.410969	-0.100231	-0.102203	0.71073	-0.160921	0	0	0.276046	-0.201714	-0.352625	0.49147	-0.307935	0	0	-0.174809	0.0925668	-0.100029	0.18875	-0.450156	0.604445	0.509254	0.809228	0	0	-0.00874043	-0.32678	0.0769231	0.791778	1.54262	0	0
25.1	0.225788	1.44903	1.38681	0.691161	0.636089	0.911899	0.394712	-0.10161	-0.109575	0.6935	-0.165188	0	0	0.258228	-0.196812	-0.35435	0.467102	-0.31792	0	0	-0.168087	0.0902418	-0.105882	0.183043	-0.450758	0.611072	0.51044	0.804308	0	0	-0.013938	-0.327406	0.0753287	0.790876	1.54276	0	0
25.11	0.228172	1.4527	1.3874	0.690887	0.638208	0.913933	0.377871	-0.10261	-0.11779	0.676035	-0.168895	0	0	0.240864	-0.192229	-0.355635	0.443539	-0.32766	0	0	-0.161531	0.0881135	-0.111454	0.177046	-0.451482	0.617253	0.51201	0.799307	0	0	-0.0189265	-0.327852	0.0738834	0.789833	1.5438	0	0
25.12	0.22989	1.4563	1.38813	0.690636	0.64028	0.915812	0.361556	-0.103351	-0.124628	0.657838	-0.173495	0	0	0.223672	-0.187565	-0.356486	0.420261	-0.337106	0	0	-0.155111	0.0857462	-0.116382	0.171032	-0.452385	0.623453	0.513835	0.795624	0	0	-0.0238734	-0.328153	0.0724748	0.788855	1.54519	0	0
